<svg width="234" height="241" version="1.1" xmlns="http://www.w3.org/2000/svg" desc="Created with imagetracer.js version 1.2.6" ><path fill="rgb(0,0,0)" stroke="rgb(0,0,0)" stroke-width="1" opacity="0" d="M 0 0 L 30 0.5 Q 14.6 3.1 7 13.5 L 1 24.5 L 0.5 28 L 0 0 Z " /><path fill="rgb(0,0,0)" stroke="rgb(0,0,0)" stroke-width="1" opacity="0" d="M 42.5 0 L 191 0.5 Q 177.1 3.1 170 12.5 L 123 75 L 120 75.5 L 120.5 77 L 117.5 76 L 114.5 77 L 112 75.5 L 59.5 8 L 49.5 2 L 42.5 1 L 42.5 0 Z " /><path fill="rgb(0,0,0)" stroke="rgb(0,0,0)" stroke-width="1" opacity="0" d="M 204.5 0 L 234 0 L 234 27.5 L 233 27.5 Q 230.4 14.6 221.5 8 Q 215.4 2.1 204.5 1 L 204.5 0 Z " /><path fill="rgb(0,0,0)" stroke="rgb(0,0,0)" stroke-width="1" opacity="0" d="M 0.5 152 Q 7.4 191.6 33.5 212 Q 45.9 222.6 62.5 229 L 82.5 234 L 91.5 234 L 92.5 235 L 94.5 234 L 96.5 234 L 98 234.5 L 97.5 236 L 100.5 238 L 103 237 L 102 234.5 L 104 235.5 L 104.5 237 L 108.5 236 L 108.5 237 L 107 237.5 L 109.5 239 L 112 238.5 L 111 236.5 L 113 236 L 113.5 238 L 116 236.5 L 114 235.5 L 115.5 235 L 117.5 235 L 119.5 234 L 122 235 L 122.5 237 L 123 235 L 126.5 236 L 130.5 234 L 132.5 234 L 151.5 234 L 165.5 231 L 176.5 227 Q 197.9 217.4 212 200.5 Q 228.6 182.1 233.5 152 L 234 241 L 0 241 L 0.5 152 Z " /><path fill="rgb(117,254,141)" stroke="rgb(117,254,141)" stroke-width="1" opacity="0.984313725490196" d="M 166.5 18 L 171 20 L 176.5 28 L 178 28 Q 176.5 31.7 179.5 31 L 182.5 35 L 184 34.5 L 185 38 L 190 41.5 L 189.5 43 L 193 44.5 L 199 53 Q 201.7 51.9 201 54.5 L 202.5 57 L 204 56.5 Q 203.3 58.8 205.5 58 L 205.5 60 L 211 64.5 L 213 67.5 L 217 70.5 L 219 75 L 221 75 L 221 77 Q 223.7 75.9 223 78.5 L 228 85 L 234 89.5 L 234 151.5 L 232 161.5 Q 223 193.5 200.5 212 Q 186 224.5 165.5 231 L 151.5 234 L 128.5 234 L 124.5 237 L 124.5 235 Q 122.3 234.3 123 236.5 L 122 236.5 Q 122.7 233.9 120 235 L 118.5 238 L 119 236.5 Q 119.8 234.3 117.5 235 L 116.5 238 L 115 236.5 L 115.5 234 Q 132 231.5 140 220.5 Q 145.1 214.1 147 204.5 L 147 143.5 L 150.5 139 L 176.5 139 L 177.5 140 L 199.5 140 L 202.5 141 L 206 138.5 L 206 136.5 L 201.5 132 L 139.5 85 Q 131.6 79.9 118 80.5 L 166.5 18 Z " /><path fill="rgb(117,254,141)" stroke="rgb(117,254,141)" stroke-width="1" opacity="0.984313725490196" d="M 113.5 234 L 114 236.5 L 113.5 238 L 112 235.5 L 113.5 234 Z " /><path fill="rgb(117,254,141)" stroke="rgb(117,254,141)" stroke-width="1" opacity="0.984313725490196" d="M 108.5 235 L 112 237.5 L 108.5 238 L 108.5 235 Z " /><path fill="rgb(50,168,252)" stroke="rgb(50,168,252)" stroke-width="1" opacity="0.9764705882352941" d="M 30.5 0 L 41.5 0 L 49.5 2 Q 58.3 5.7 64 12.5 L 93 50.5 L 90 48.5 L 85.5 43 L 83.5 44 Q 82 41.5 80.5 45 L 69 48 L 67.5 51 L 64.5 52 L 62.5 51 L 57.5 55 L 55.5 55 L 52 56.5 Q 52.8 58.8 50.5 58 Q 49.3 55.8 48 58.5 L 47.5 60 L 44.5 58 L 44 60 L 38 62.5 L 37.5 64 L 37 62 L 26 66 Q 27.3 69 23.5 68 L 22.5 67 L 19.5 70 L 17.5 70 L 3.5 76 L 0 76 L 0 28.5 Q 3.4 15.4 12.5 8 Q 19.5 2 30.5 0 Z " /><path fill="rgb(50,168,252)" stroke="rgb(50,168,252)" stroke-width="1" opacity="0.9764705882352941" d="M 114.5 77 L 116.5 77 L 120 77.5 L 118 78.5 Q 120.3 79.8 117.5 81 L 115 79.5 L 114.5 77 Z " /><path fill="rgb(50,168,252)" stroke="rgb(50,168,252)" stroke-width="1" opacity="0.9764705882352941" d="M 98.5 234 L 102.5 235 Q 104 232.5 109.5 234 L 112 235.5 L 110.5 236 L 108.5 235 L 103.5 238 L 97 235.5 L 98.5 234 Z M 103 235 L 103 237 L 105 236 L 103 235 Z " /><path fill="rgb(50,168,252)" stroke="rgb(50,168,252)" stroke-width="1" opacity="0.9764705882352941" d="M 114.5 234 L 113.5 236 L 114.5 234 Z " /><path fill="rgb(240,254,240)" stroke="rgb(240,254,240)" stroke-width="1" opacity="0.996078431372549" d="M 118.5 81 L 128.5 81 L 139.5 85 L 206 136.5 L 204.5 140 L 200.5 141 L 199.5 140 L 177.5 140 L 176.5 139 L 150.5 139 L 147 143.5 L 147 204.5 Q 143.8 219.3 133.5 227 Q 127.1 232.1 117.5 234 L 115.5 234 L 110.5 235 L 110.5 234 L 113 232.5 L 110 227.5 L 110.5 224 L 109 223.5 L 111 222.5 L 109 221.5 L 109.5 218 L 108 217.5 L 111 213.5 L 109 212.5 L 111 209.5 L 109 208.5 L 111 203.5 L 111 191.5 L 113 180.5 L 113 178.5 Q 111.2 172.3 114 170.5 Q 110 168.5 114 166.5 L 114 147.5 L 115 145.5 L 115 143.5 L 115 121.5 L 116 120.5 L 116 110.5 L 118 102 Q 114.7 103.1 116 99 L 118 98.5 L 117 95.5 L 118 90.5 L 118 86.5 L 119 83.5 L 116 82.5 L 118.5 81 Z " /><path fill="rgb(55,196,249)" stroke="rgb(55,196,249)" stroke-width="1" opacity="0.9921568627450981" d="M 82.5 43 L 84.5 44 L 85.5 43 L 90 47.5 L 92.5 51 L 95 52.5 L 116 80.5 L 104.5 85 L 93 95.5 L 87 108.5 L 87 170.5 L 86 173 Q 82.3 174.5 83 171.5 L 83 169.5 L 84 164.5 L 84 162.5 L 82 154.5 L 83 151.5 L 82 149.5 L 82 147.5 L 82 135.5 L 81 134.5 L 82 132.5 L 80 130.5 L 81 127.5 L 80 121.5 L 81 119.5 L 79 117.5 L 80.5 115 L 75.5 112 L 75.5 114 L 73 114.5 L 73.5 116 L 71 115 Q 72.1 117.7 69.5 117 L 68 116.5 L 66.5 119 Q 64.3 119.8 65 117.5 L 64 117.5 L 62.5 121 L 60.5 120 L 56.5 122 L 54.5 121 L 53.5 124 L 50.5 126 L 48 124.5 L 47.5 127 L 46.5 125 L 42.5 127 Q 39.9 126.2 41 129.5 L 41.5 131 L 40 128 L 36 129.5 L 36.5 131 L 32.5 130 L 32.5 132 L 30.5 132 L 25 133.5 L 25.5 135 L 23.5 136 L 23.5 134 L 17 136 L 18 138.5 L 15.5 137 L 13.5 139 Q 10.9 138.3 12 141 L 9.5 141 L 8 140.5 L 9 142.5 L 7 143 L 6.5 141 L 5.5 143 L 2.5 142 L 2.5 144 Q 0.3 144.8 1 142.5 L 0 141.5 L 0 79.5 L 0 77.5 Q -0.9 74.5 3.5 76 L 18.5 69 L 19.5 70 L 22.5 67 L 23.5 68 L 26 68 Q 24.8 65 28.5 66 Q 31.6 62.3 37 62 L 37.5 64 L 39.5 61 L 44 60 L 44.5 58 L 47.5 60 L 49.5 57 L 52 58 L 53.5 55 L 56.5 54 L 58.5 54 L 63.5 51 L 65.5 51 L 69 49.5 Q 68.1 46.5 72.5 48 L 82.5 43 Z M 78 111 L 78 113 L 80 114 Q 81 110 78 111 Z " /><path fill="rgb(55,196,249)" stroke="rgb(55,196,249)" stroke-width="1" opacity="0.9921568627450981" d="M 58.5 123 L 57.5 125 L 58.5 123 Z " /><path fill="rgb(55,196,249)" stroke="rgb(55,196,249)" stroke-width="1" opacity="0.9921568627450981" d="M 30.5 133 L 31.5 135 L 30.5 133 Z " /><path fill="rgb(55,196,249)" stroke="rgb(55,196,249)" stroke-width="1" opacity="0.9921568627450981" d="M 26 174 L 29 174.5 L 28 179.5 L 29.5 183 L 31 182.5 L 30.5 184 L 32 184.5 L 30.5 185 Q 25.7 182.4 25 177 L 27 176.5 L 26 174 Z " /><path fill="rgb(55,196,249)" stroke="rgb(55,196,249)" stroke-width="1" opacity="0.9921568627450981" d="M 37.5 188 L 38.5 190 L 37.5 188 Z " /><path fill="rgb(59,225,239)" stroke="rgb(59,225,239)" stroke-width="1" opacity="0.984313725490196" d="M 191.5 0 L 203.5 0 L 213.5 3 L 227 13.5 L 234 28.5 L 234 88.5 L 229.5 85 Q 227.3 85.8 228 83.5 L 223 77 L 221 77 L 221 75 Q 218.3 76.1 219 73.5 L 215.5 69 L 213 67.5 L 211 64.5 L 205 59.5 L 205.5 58 Q 203.3 58.8 204 56.5 L 202 56.5 L 201 53 Q 198.3 54.1 199 51.5 L 192.5 44 L 191 44.5 L 191.5 43 L 189 42.5 L 190 41.5 L 186.5 38 Q 184.3 38.8 185 36.5 L 183.5 34 L 182 34.5 L 179.5 31 L 178 31 Q 179.5 27.3 176.5 28 L 171 20 L 167 17.5 L 174.5 8 Q 181.1 2.1 191.5 0 Z " /><path fill="rgb(59,225,239)" stroke="rgb(59,225,239)" stroke-width="1" opacity="0.984313725490196" d="M 101.5 87 L 100.5 89 L 101.5 87 Z " /><path fill="rgb(59,225,239)" stroke="rgb(59,225,239)" stroke-width="1" opacity="0.984313725490196" d="M 94.5 94 L 93.5 96 L 94.5 94 Z " /><path fill="rgb(59,225,239)" stroke="rgb(59,225,239)" stroke-width="1" opacity="0.984313725490196" d="M 78 111 Q 81 109.8 80 113.5 L 79.5 115 L 81 115.5 Q 77.2 117.3 80.5 119 L 82 118.5 Q 79.4 119.9 80 124.5 L 82 128.5 Q 78 130.5 82 132.5 L 81 134.5 L 82 135.5 L 82 147.5 L 83 148.5 L 83 150.5 L 82 152.5 L 83 155.5 L 84 162.5 L 84 164.5 L 83 169.5 L 83 171.5 Q 82.2 174.5 86 173 L 86.5 171 L 87 172.5 Q 85.4 177.9 77.5 177 L 76.5 176 L 55.5 176 L 54.5 175 L 33.5 175 L 31.5 174 L 28.5 176 L 28.5 174 Q 25.2 172.9 26 175.5 L 26.5 177 Q 24.3 176.3 25 178.5 L 28.5 183 L 29 181 L 91.5 228 Q 96.6 232.4 105 233.5 L 82.5 234 Q 42.9 226.7 22 200.5 Q 6.9 183.6 1 157.5 L 1 155.5 L 0 151.5 L 0 149.5 L 0.5 142 L 1 144 L 3 143.5 L 2.5 142 L 5.5 143 L 6.5 141 L 7 143 L 9 142.5 L 8 140.5 L 9.5 141 Q 12.8 142.1 12 139.5 L 10 139.5 Q 11.3 136.8 12.5 139 L 15.5 137 L 17 137.5 Q 16.2 134.9 19.5 136 L 23.5 134 L 25.5 135 L 25.5 133 L 31 131.5 L 30.5 130 L 32.5 130 L 40 128 L 40.5 130 L 41 127 L 43.5 126 L 44.5 127 L 47 125.5 L 47.5 127 L 48.5 124 Q 50.5 128 52.5 124 L 54 123.5 Q 51.8 122.2 54.5 121 L 56.5 122 L 61.5 120 L 63 120.5 Q 63.8 118.3 61.5 119 L 61.5 118 L 63.5 119 L 64.5 117 L 65 119 L 67 118.5 L 66.5 117 L 68 117.5 L 68.5 116 L 71 117 Q 69.9 114.3 72.5 115 L 76 113.5 L 75.5 112 L 77.5 113 L 78 111 Z " /><path fill="rgb(59,225,239)" stroke="rgb(59,225,239)" stroke-width="1" opacity="0.984313725490196" d="M 51.5 122 L 50.5 124 L 51.5 122 Z " /><path fill="rgb(233,251,252)" stroke="rgb(233,251,252)" stroke-width="1" opacity="0.9921568627450981" d="M 116.5 81 L 118 81.5 L 116 82.5 L 119 83.5 L 118 86.5 L 118 90.5 L 117 97.5 L 117.5 99 Q 114.5 98.2 116 102 Q 119.3 100.7 118 105.5 L 116 110.5 L 115 143.5 L 114 144.5 L 115 146.5 L 114 147.5 L 114 166.5 L 112 168.5 Q 115.5 170 113 171.5 Q 114.7 177.8 112 179.5 L 112 181.5 L 111 203.5 L 109 208.5 L 111 209.5 L 109 212.5 L 111 213.5 L 108 217.5 L 110 218.5 L 109.5 222 L 111 222.5 L 109 223.5 L 111 224.5 L 110 227.5 L 113 232.5 L 111.5 234 L 105.5 234 L 94.5 230 L 29 181 L 28 176.5 L 32.5 174 L 33.5 175 L 54.5 175 L 55.5 176 L 76.5 176 L 81.5 177 L 87 172.5 L 87 110.5 Q 90 96.5 99.5 89 Q 106.1 83.1 116.5 81 Z " /></svg>